<?xml version="1.0" encoding="UTF-8" standalone="no"?>
<!-- Created with Inkscape (http://www.inkscape.org/) -->
<svg
   xmlns:dc="http://purl.org/dc/elements/1.1/"
   xmlns:cc="http://creativecommons.org/ns#"
   xmlns:rdf="http://www.w3.org/1999/02/22-rdf-syntax-ns#"
   xmlns:svg="http://www.w3.org/2000/svg"
   xmlns="http://www.w3.org/2000/svg"
   xmlns:sodipodi="http://sodipodi.sourceforge.net/DTD/sodipodi-0.dtd"
   xmlns:inkscape="http://www.inkscape.org/namespaces/inkscape"
   version="1.0"
   width="16"
   height="16"
   id="svg3245"
   sodipodi:version="0.32"
   inkscape:version="0.46"
   sodipodi:docname="refresh.svg"
   inkscape:output_extension="org.inkscape.output.svg.inkscape">
  <metadata
     id="metadata7">
    <rdf:RDF>
      <cc:Work
         rdf:about="">
        <dc:format>image/svg+xml</dc:format>
        <dc:type
           rdf:resource="http://purl.org/dc/dcmitype/StillImage" />
      </cc:Work>
    </rdf:RDF>
  </metadata>
  <sodipodi:namedview
     inkscape:window-height="706"
     inkscape:window-width="656"
     inkscape:pageshadow="2"
     inkscape:pageopacity="0.0"
     guidetolerance="10.0"
     gridtolerance="10.0"
     objecttolerance="10.0"
     borderopacity="1.0"
     bordercolor="#666666"
     pagecolor="#ffffff"
     id="base"
     showgrid="false"
     inkscape:zoom="31.125"
     inkscape:cx="8"
     inkscape:cy="8"
     inkscape:window-x="399"
     inkscape:window-y="54"
     inkscape:current-layer="svg3245" />
  <defs
     id="defs3247">
    <inkscape:perspective
       sodipodi:type="inkscape:persp3d"
       inkscape:vp_x="0 : 8 : 1"
       inkscape:vp_y="0 : 1000 : 0"
       inkscape:vp_z="16 : 8 : 1"
       inkscape:persp3d-origin="8 : 5.3333333 : 1"
       id="perspective9" />
  </defs>
  <path
     style="fill:#000000;fill-opacity:1;fill-rule:nonzero;stroke:none;stroke-width:1;stroke-linecap:butt;stroke-linejoin:miter;marker:none;marker-start:none;marker-mid:none;marker-end:none;stroke-miterlimit:4;stroke-dasharray:none;stroke-dashoffset:0;stroke-opacity:0;visibility:visible;display:inline;overflow:visible;enable-background:accumulate"
     id="path3227"
     d="M 14,1 C 13.160844,1.7283071 12.371071,2.4891609 11.59375,3.25 C 11.401267,3.1063934 11.207561,2.9640019 11,2.84375 L 11,2.8125 C 9.9243965,2.1915 8.7466828,1.9183744 7.59375,2 C 7.2094391,2.0272085 6.8083759,2.1193741 6.4375,2.21875 C 6.4152753,2.2246763 6.3972139,2.2438069 6.375,2.25 C 6.1682759,2.3080227 5.9808741,2.3576869 5.78125,2.4375 C 5.5978639,2.5108209 5.425835,2.5962074 5.25,2.6875 C 5.0687815,2.7815877 4.8903377,2.8872547 4.71875,3 C 4.5604359,3.1040236 4.3987781,3.2242022 4.25,3.34375 C 4.1442961,3.4286864 4.0378361,3.5011258 3.9375,3.59375 C 3.8937081,3.6337358 3.8550074,3.677557 3.8125,3.71875 C 3.5721289,3.9541029 3.3270404,4.2199109 3.125,4.5 C 3.1110125,4.5193909 3.1075363,4.5428994 3.09375,4.5625 C 3.0856276,4.5739775 3.070541,4.5822175 3.0625,4.59375 C 2.968827,4.7290426 2.8962303,4.8549748 2.8125,5 C 2.7939073,5.0316085 2.7680137,5.0618092 2.75,5.09375 C 2.668925,5.2405193 2.5988208,5.3808663 2.53125,5.53125 C 2.5212382,5.5530761 2.5097525,5.5718017 2.5,5.59375 C 2.4285786,5.7577882 2.3682282,5.9264762 2.3125,6.09375 C 2.1835536,6.4711848 2.0829408,6.8498007 2.03125,7.25 C 1.9833401,7.6367323 1.9727915,8.0219391 2,8.40625 C 2.0006767,8.4167088 1.9992676,8.4270368 2,8.4375 C 2.0264609,8.8155296 2.1170668,9.1831728 2.21875,9.5625 C 2.2240143,9.5821382 2.2132773,9.6053704 2.21875,9.625 C 2.2647622,9.7898942 2.3150974,9.9332278 2.375,10.09375 C 2.3895021,10.133196 2.3909882,10.179772 2.40625,10.21875 C 2.461501,10.357738 2.5281587,10.490221 2.59375,10.625 C 2.8540958,11.168846 3.198097,11.633027 3.59375,12.0625 C 3.6279288,12.0996 3.6524491,12.151331 3.6875,12.1875 C 3.7892485,12.292157 3.8897174,12.402175 4,12.5 C 4.0332494,12.529565 4.0598821,12.564955 4.09375,12.59375 C 4.2140861,12.696043 4.3701549,12.781337 4.5,12.875 C 4.523454,12.891859 4.5388128,12.920984 4.5625,12.9375 C 4.8665593,13.149504 5.1935768,13.315965 5.53125,13.46875 C 5.5436462,13.474359 5.5500647,13.494474 5.5625,13.5 C 6.0892593,13.734061 6.6390327,13.893872 7.21875,13.96875 C 7.2289848,13.970072 7.239763,13.967482 7.25,13.96875 C 7.6268237,14.015468 8.0189979,14.027106 8.40625,14 C 8.8038506,13.972169 9.1949584,13.923681 9.59375,13.8125 L 9.59375,13.78125 C 11.065161,13.378838 12.365104,12.424432 13.1875,11 L 11.46875,10 C 10.921953,10.94708 10.040273,11.60546 9.0625,11.875 C 9.0531956,11.877565 9.0405726,11.872502 9.03125,11.875 C 8.0546832,12.13667 6.9786093,12.034144 6.03125,11.5 C 6.0185309,11.492827 6.0126405,11.476061 6,11.46875 C 5.7868173,11.345669 5.5875059,11.216384 5.40625,11.0625 C 5.3839047,11.043501 5.3656915,11.019501 5.34375,11 C 4.946188,10.647348 4.6310396,10.211903 4.40625,9.75 C 4.2938552,9.5190484 4.1912506,9.2785006 4.125,9.03125 C 4.0614352,8.794023 4.0193118,8.5581092 4,8.3125 C 3.999259,8.3019143 4.0006554,8.291829 4,8.28125 C 3.9825854,8.0352746 4.0025419,7.7788485 4.03125,7.53125 C 4.03253,7.5213403 4.0298962,7.5098936 4.03125,7.5 C 4.0365733,7.4570297 4.0557537,7.4178961 4.0625,7.375 C 4.1332362,6.9252251 4.2670737,6.4826639 4.5,6.0625 C 4.5042196,6.0550181 4.4957327,6.0387047 4.5,6.03125 C 4.5068018,6.0191862 4.5243092,6.0120219 4.53125,6 C 4.6499798,5.7943541 4.7900209,5.6134596 4.9375,5.4375 C 5.1038734,5.2418189 5.29673,5.068032 5.5,4.90625 C 5.70327,4.744468 5.9198174,4.5900119 6.15625,4.46875 C 6.3926826,4.3474881 6.640389,4.2616208 6.90625,4.1875 C 7.7038331,3.9651375 8.5191516,3.9746163 9.25,4.21875 C 9.4936161,4.3001279 9.7457909,4.4055073 9.96875,4.53125 C 9.977257,4.5360801 9.991514,4.5263506 10,4.53125 C 10.065051,4.5684875 10.124831,4.6150135 10.1875,4.65625 C 9.4507187,5.4216582 8.7248094,6.1928613 8,7 C 10,7 12,7 14,7 C 14,5 14,3 14,1 z" />
</svg>
