<?xml version="1.0" encoding="UTF-8" standalone="no"?>
<!-- Created with Inkscape (http://www.inkscape.org/) -->
<svg
   xmlns:svg="http://www.w3.org/2000/svg"
   xmlns="http://www.w3.org/2000/svg"
   version="1.0"
   width="16"
   height="16"
   id="svg3227">
  <defs
     id="defs3229" />
  <path
     d="M 9.6141152,11.804942 C 9.5432554,11.865047 7.9792508,13.498837 7.9792508,13.498837 C 7.9792508,13.498837 6.4301383,11.851242 6.3720167,11.804942 C 6.4758855,11.728199 6.8998211,11.426403 7.982628,11.430707 C 9.0480864,11.43492 9.5329637,11.730553 9.6141152,11.804942 L 9.6141152,11.804942 z"
     id="path3375"
     style="fill:#787878;fill-opacity:1;fill-rule:evenodd;stroke:none;overflow:visible" />
  <path
     d="M 4.82036,10.134232 C 4.82036,10.134232 5.5861007,9.1796864 7.93216,9.1553562 C 10.248972,9.1313263 11.135453,10.134232 11.135453,10.134232"
     id="path2393"
     style="opacity:0.41999996;fill:none;stroke:#787878;stroke-width:1.26748598;stroke-linecap:butt;stroke-linejoin:miter;marker:none;stroke-miterlimit:4;stroke-dasharray:none;stroke-dashoffset:0;stroke-opacity:1;visibility:visible;display:inline;overflow:visible;enable-background:accumulate" />
  <path
     d="M 2.7797648,7.9184766 C 2.7797648,7.9184766 4.4603795,6.1274043 7.9854706,6.1911281 C 11.5398,6.2553806 13.191174,7.947243 13.191174,7.947243"
     id="path2391"
     style="opacity:0.41999996;fill:none;stroke:#787878;stroke-width:1.26748598;stroke-linecap:butt;stroke-linejoin:miter;marker:none;stroke-miterlimit:4;stroke-dasharray:none;stroke-dashoffset:0;stroke-opacity:1;visibility:visible;display:inline;overflow:visible;enable-background:accumulate" />
  <path
     d="M 0.63142498,5.6715692 C 0.63142498,5.6715692 2.9650114,3.1349059 7.9854706,3.1349059 C 12.981248,3.1349059 15.368574,5.675874 15.368574,5.675874"
     id="path3209"
     style="opacity:0.41999996;fill:none;stroke:#787878;stroke-width:1.26748598;stroke-linecap:butt;stroke-linejoin:miter;marker:none;stroke-miterlimit:4;stroke-dasharray:none;stroke-dashoffset:0;stroke-opacity:1;visibility:visible;display:inline;overflow:visible;enable-background:accumulate" />
</svg>
